PathFileType	4	(X/Y/Z)	 s03c0301.trc
DataRate	CameraRate	NumFrames	NumMarkers	Units	OrigDataRate	OrigDataStartFrame	OrigNumFrames
200	200	4	52	mm	200	1751	2000
Frame#	Time	racr			lacr			c7			jug			rlel			rdr			llel			ldr			s2			lic			ric			lasi			rasi			rpsi			lpsi			rgt			lgt			rth1			rth2			rth3			rth4			rlfc			rmfc			rsh1			rsh2			rsh3			rsh4			rlmal			rmmal			rcal			rtoe			rmt5			rmt1			lth1			lth2			lth4			lth3			llfc			lmfc			lsh1			lsh2			lsh3			lsh4			llmal			lmmal			lcal			ltoe			lmt1			lmt5			SBIKE			LBIKE			RBIKE			
		X1	Y1	Z1	X2	Y2	Z2	X3	Y3	Z3	X4	Y4	Z4	X5	Y5	Z5	X6	Y6	Z6	X7	Y7	Z7	X8	Y8	Z8	X9	Y9	Z9	X10	Y10	Z10	X11	Y11	Z11	X12	Y12	Z12	X13	Y13	Z13	X14	Y14	Z14	X15	Y15	Z15	X16	Y16	Z16	X17	Y17	Z17	X18	Y18	Z18	X19	Y19	Z19	X20	Y20	Z20	X21	Y21	Z21	X22	Y22	Z22	X23	Y23	Z23	X24	Y24	Z24	X25	Y25	Z25	X26	Y26	Z26	X27	Y27	Z27	X28	Y28	Z28	X29	Y29	Z29	X30	Y30	Z30	X31	Y31	Z31	X32	Y32	Z32	X33	Y33	Z33	X34	Y34	Z34	X35	Y35	Z35	X36	Y36	Z36	X37	Y37	Z37	X38	Y38	Z38	X39	Y39	Z39	X40	Y40	Z40	X41	Y41	Z41	X42	Y42	Z42	X43	Y43	Z43	X44	Y44	Z44	X45	Y45	Z45	X46	Y46	Z46	X47	Y47	Z47	X48	Y48	Z48	X49	Y49	Z49	X50	Y50	Z50	X51	Y51	Z51	X52	Y52	Z52	
1751	8.7550	544.823559	1407.037142	-16.730573	541.139201	1439.716570	-334.074781	475.959039	1507.637917	-167.744671	499.434710	1336.745046	-179.866609	527.893039	1131.460295	73.401974	721.528363	942.744875	-25.102755	580.718491	1176.443924	-423.193834	740.311369	920.190549	-400.641251	-60.576993	1250.625141	-188.238314	119.879732	1276.798171	-367.263282	121.459674	1231.830747	-7.592940	126.719421	1199.546829	-341.226493	132.647452	1156.378606	-59.606530	-24.362648	1288.544574	-135.100278	-21.080959	1299.776448	-218.720638	34.749971	1128.508863	-9.235144	52.314753	1207.742016	-397.718525	76.189367	978.393227	6.691004	128.667544	906.477962	5.070232	142.171528	822.802886	-10.568989	162.321128	921.093136	-0.016543	179.401360	707.006983	-47.735468	202.921683	696.203704	-158.823512	156.372843	540.171032	-23.717283	176.347778	453.471924	-34.142543	148.926789	369.560999	-40.852756	208.425049	454.523343	-56.505290	134.814060	237.128541	-65.000767	163.431298	254.662612	-144.409516	77.780613	195.664479	-102.602561	387.771204	173.742357	-109.000216	268.775601	160.429323	-36.610018	293.477244	181.282013	-150.186904	139.791918	1128.867505	-462.745464	218.294773	1106.326633	-491.715802	241.027201	1132.680139	-477.921021	274.943582	1042.557899	-519.391761	392.208813	967.651802	-540.733828	427.751426	952.021398	-415.519779	285.363633	831.624353	-522.846264	257.761066	758.081658	-486.844070	188.963450	706.550409	-459.081232	287.788994	743.704087	-466.653466	116.304947	611.464559	-410.303929	158.966112	631.041896	-329.099544	46.622486	587.986209	-353.673716	343.074185	507.467009	-354.960882	251.555951	524.533065	-310.043382	220.842079	507.401435	-424.343649	-212.153744	946.758514	-227.623792	-4.473139	84.046457	-432.833333	-8.887819	80.925319	-32.454742	
1752	8.7600	543.890762	1406.978669	-16.776856	540.449362	1439.598604	-334.233066	475.051453	1507.613130	-167.811646	498.660079	1336.731704	-180.049509	527.546037	1131.376605	73.111905	721.469250	942.726967	-25.198186	580.423325	1176.310290	-423.193343	740.237846	920.187245	-400.637102	-61.326276	1250.154733	-188.637515	119.298892	1276.493192	-367.618501	120.644329	1231.719684	-7.874641	126.024740	1199.116851	-341.159124	131.919948	1156.220158	-59.884635	-25.102226	1288.250826	-135.538535	-21.797914	1299.471468	-219.198001	34.005145	1128.286882	-9.557695	51.783759	1207.433223	-398.047828	75.593417	978.212387	6.425700	128.288583	906.388314	4.837600	141.864523	822.731755	-10.620566	162.014853	920.896907	-0.441770	179.313319	706.973093	-47.707626	202.855421	696.163809	-158.806337	156.265252	540.125604	-23.723226	176.231928	453.422548	-34.147123	148.808609	369.518060	-40.861356	208.340570	454.472904	-56.497324	134.693269	237.117868	-65.041502	163.351553	254.630221	-144.431906	77.675523	195.612690	-102.662976	387.659036	173.755540	-108.986716	268.676369	160.398426	-36.630141	293.388826	181.281872	-150.208573	139.447264	1128.574124	-463.000628	217.992967	1106.105386	-491.888566	240.659067	1132.525494	-478.075068	274.744129	1042.383467	-519.465785	392.092343	967.778797	-541.051749	427.552269	952.061684	-415.414045	285.313232	831.556359	-522.816475	257.716957	758.017280	-486.796425	189.014934	706.337661	-458.862194	287.726250	743.661314	-466.581691	116.261079	611.371644	-410.303931	159.177886	630.766875	-328.926072	46.572491	587.799067	-353.667047	343.066301	507.537687	-355.046704	251.566003	524.567281	-310.033755	220.864416	507.426994	-424.361816	-212.203652	946.777239	-227.849495	-4.475099	84.024840	-432.843880	-8.889797	80.928785	-32.455113	
1753	8.7650	543.026000	1406.953152	-16.752485	539.756044	1439.507745	-334.417847	474.182388	1507.576986	-168.051016	497.979679	1336.716866	-180.079859	527.204785	1131.275203	72.810522	721.404169	942.715106	-25.283601	580.112038	1176.165012	-423.182100	740.157569	920.188706	-400.584611	-61.942165	1249.530845	-188.622758	118.707467	1276.196833	-367.961439	119.903507	1231.663623	-8.204259	125.586289	1199.066761	-341.864764	131.189535	1156.051379	-60.169494	-25.894830	1287.953900	-135.981348	-22.547601	1299.154439	-219.654851	33.303299	1128.112562	-9.865390	51.301520	1206.982318	-398.389807	75.065939	978.042075	6.188904	127.782111	906.287298	4.676708	141.560740	822.646829	-10.704536	161.580291	920.855611	-0.544540	179.215620	706.927147	-47.705693	202.809185	696.124203	-158.788118	156.173153	540.080351	-23.713752	176.155339	453.376286	-34.136716	148.701236	369.474869	-40.881730	208.252084	454.425060	-56.472028	134.579206	237.096272	-65.028356	163.269935	254.600871	-144.425369	77.567486	195.548766	-102.687307	387.553109	173.817802	-108.985581	268.559438	160.382262	-36.635268	293.318185	181.271508	-150.194330	139.123693	1128.094092	-462.872949	217.711330	1105.894282	-492.055612	240.332870	1132.332560	-478.240449	274.553237	1042.156267	-519.549276	392.021845	967.548470	-540.622433	427.360951	952.105348	-415.309915	285.270274	831.476428	-522.799244	257.676482	757.949332	-486.761138	188.975969	706.257700	-458.858277	287.676867	743.624775	-466.527110	116.204256	611.280394	-410.286824	158.783311	630.917023	-329.023716	46.516965	587.656976	-353.666290	343.102340	507.615171	-355.026176	251.569677	524.597133	-310.022593	220.893240	507.448196	-424.343067	-212.155514	946.771178	-227.715424	-4.475955	84.041781	-432.843429	-8.878319	80.930845	-32.459888	
1754	8.7700	542.091256	1406.877824	-16.825952	539.089247	1439.362380	-334.517541	473.286408	1507.567907	-168.103466	497.297976	1336.731054	-180.110469	526.879894	1131.159380	72.507381	721.338688	942.704546	-25.403016	579.867514	1176.051459	-423.151180	740.112742	920.178230	-400.574894	-62.709038	1249.489755	-189.597703	118.123278	1275.887342	-368.373819	119.051281	1231.480877	-8.529157	125.124908	1198.672957	-342.205308	130.438252	1155.864389	-60.475110	-26.665806	1287.641789	-136.450225	-23.273942	1298.759865	-220.132123	32.585565	1127.912246	-10.212643	50.807199	1206.573862	-398.787111	74.546818	977.911848	5.913491	127.595030	906.018822	4.121739	141.260105	822.591942	-10.796923	161.302997	920.649547	-0.930137	179.128640	706.883124	-47.693342	202.774146	696.108674	-158.763829	156.082916	540.043753	-23.704093	176.039157	453.313239	-34.121911	148.614336	369.447489	-40.867758	208.167057	454.385018	-56.432573	134.494621	237.067701	-65.025099	163.228354	254.547497	-144.436635	77.480831	195.489114	-102.703587	387.461560	173.850874	-108.982123	268.476978	160.366666	-36.627414	293.236981	181.271502	-150.181342	138.750493	1127.890034	-463.480016	217.406944	1105.587247	-492.212312	239.995429	1132.120151	-478.457894	274.385093	1041.895759	-519.619456	391.937619	967.481896	-540.568577	427.160033	952.129096	-415.206064	285.232648	831.396727	-522.769639	257.644200	757.894682	-486.760068	188.838249	706.305176	-459.058235	287.621887	743.576131	-466.436386	116.172876	611.200787	-410.290936	158.946729	630.672565	-328.847809	46.464137	587.533350	-353.674229	343.106364	507.761534	-354.997024	251.563096	524.621450	-310.010636	220.903240	507.465647	-424.334948	-212.141903	946.796365	-227.784632	-4.482798	84.043786	-432.851445	-8.875565	80.939881	-32.444790	
